<?xml version="1.0" encoding="UTF-8"?>
<svg width="83px" height="83px" viewBox="0 0 83 83" version="1.1" xmlns="http://www.w3.org/2000/svg" xmlns:xlink="http://www.w3.org/1999/xlink">
    <!-- Generator: Sketch 53.2 (72643) - https://sketchapp.com -->
    <title>emoji-board-10</title>
    <desc>Created with Sketch.</desc>
    <defs>
        <path d="M22.911302,0.0615370705 C22.911302,6.35474689 17.8096474,11.4564014 11.5164376,11.4564014 C5.22322779,11.4564014 0.121573237,6.35474689 0.121573237,0.0615370705 L22.911302,0.0615370705 Z" id="path-1"></path>
    </defs>
    <g id="Page-1" stroke="none" stroke-width="1" fill="none" fill-rule="evenodd">
        <g id="thanku-page" transform="translate(-474.000000, -317.000000)">
            <g id="emoji-board-10" transform="translate(474.000000, 317.000000)">
                <circle id="_Path_" fill="#303C57" cx="41.4729837" cy="41.4504702" r="41.4249548"></circle>
                <circle id="_Path_2" fill="#D3E8FB" cx="41.4729837" cy="39.6493852" r="37.0723327"></circle>
                <path d="M8.56265823,30.3377758 C8.5176311,31.0101808 8.50412297,31.7486257 8.50112116,32.5756239 C8.47560579,39.8700181 14.0274503,46.2053345 21.3113382,46.5685533 C25.0070534,46.756044 28.6178713,45.4191905 31.3004536,42.8702267 C33.9830358,40.3212629 35.5024733,36.7833972 35.5038879,33.0829295 C35.5179412,32.0623422 35.463788,31.0419563 35.3417902,30.0285895 C34.9155335,26.8992043 32.1898915,24.5938156 29.0379928,24.5622966 L15.0540687,24.4212116 C11.6710307,24.3866908 8.79529837,26.9652441 8.56265823,30.3377758 Z" id="Path" fill="#2F3847"></path>
                <path d="M47.5036166,30.3377758 C47.4570886,31.0101808 47.4450814,31.7486257 47.4420796,32.5756239 C47.4165642,39.8700181 52.9684087,46.2053345 60.2522966,46.5685533 C63.9480118,46.756044 67.5588297,45.4191905 70.241412,42.8702267 C72.9239942,40.3212629 74.4434317,36.7833972 74.4448463,33.0829295 C74.4588996,32.0623422 74.4047464,31.0419563 74.2827486,30.0285895 C73.8564919,26.8992043 71.1308499,24.5938156 67.9789512,24.5622966 L53.996528,24.4212116 C50.6119892,24.3866908 47.7362568,26.9652441 47.5036166,30.3377758 Z" id="Path" fill="#2F3847"></path>
                <rect id="Rectangle" fill="#2F3847" x="31.5264919" y="27.9648463" width="20.9166004" height="5.39725136"></rect>
                <path d="M52.4430922,34.0179928 C52.4430922,34.0179928 52.4430922,40.1716998 58.9495118,42.1003617" id="Path" stroke="#FFFFFF" stroke-width="2.4" stroke-linecap="round" stroke-linejoin="round"></path>
                <path d="M12.3374322,34.0179928 C12.3374322,34.0179928 12.3374322,40.1716998 18.8423508,42.1003617" id="Path" stroke="#FFFFFF" stroke-width="2.4" stroke-linecap="round" stroke-linejoin="round"></path>
                <circle id="Oval" fill="#FFFFFF" cx="52.5151356" cy="30.099132" r="1.40334539"></circle>
                <circle id="Oval" fill="#FFFFFF" cx="12.3374322" cy="30.099132" r="1.40334539"></circle>
                <g id="Group-4" transform="translate(30.468354, 55.383363)">
                    <mask id="mask-2" fill="white">
                        <use xlink:href="#path-1"></use>
                    </mask>
                    <use id="_Path_3" fill="#2F3847" xlink:href="#path-1"></use>
                    <circle id="_Path_10" fill="#CD4B51" mask="url(#mask-2)" cx="11.1156962" cy="12.0297468" r="5.64039783"></circle>
                </g>
                <path d="M32.8788065,52.2794937 L51.0922785,52.2794937 C52.3555624,52.2794937 53.3796564,53.3035877 53.3796564,54.5668716 L53.3796564,55.4449005 L30.5899277,55.4449005 L30.5899277,54.5668716 C30.5899275,53.9599611 30.8311245,53.37793 31.2604157,52.9489203 C31.689707,52.5199105 32.2718962,52.2790954 32.8788065,52.2794937 Z" id="_Path_4" fill="#FFFFFC"></path>
                <path d="M53.3796564,53.8614467 C53.0729023,52.9190112 52.1944471,52.281071 51.2033454,52.2809946 L32.9898734,52.2809946 C31.9987717,52.281071 31.1203165,52.9190112 30.8135624,53.8614467 L53.3796564,53.8614467 Z" id="_Path_5" fill="#E9EDF0"></path>
            </g>
        </g>
    </g>
</svg>