<?xml version="1.0" encoding="UTF-8"?>
<svg width="148px" height="50px" viewBox="0 0 148 50" version="1.1" xmlns="http://www.w3.org/2000/svg" xmlns:xlink="http://www.w3.org/1999/xlink">
    <!-- Generator: Sketch 53.2 (72643) - https://sketchapp.com -->
    <title>softdental-logo</title>
    <desc>Created with Sketch.</desc>
    <g id="Page-1" stroke="none" stroke-width="1" fill="none" fill-rule="evenodd">
        <g id="Soft-servicio-detalle" transform="translate(-87.000000, -31.000000)">
            <g id="softdental-logo" transform="translate(87.000000, 31.000000)">
                <polygon id="Rectangle-14" fill="#FFFFFF" points="5.49845201 7.33944954 36.6563467 7.33944954 36.6563467 39.9082569 5.49845201 39.9082569"></polygon>
                <path d="M10.6435587,49.6043288 C7.57284452,48.5681228 2.88014765,36.7490594 0.878407777,26.7191486 C-0.10569946,21.7881843 -0.466122025,14.1894013 0.878407768,8.46147713 C1.79852348,4.54162871 3.98505414,1.51949935 5.46011402,0.742622273 C10.0947868,-1.69834374 17.0927701,2.65985289 21.1517182,2.65985289 C24.5089932,2.65985289 32.2517081,-1.28196322 36.5518769,0.967834819 C40.6936493,3.1347617 41.4583765,11.4964137 41.4583765,11.4964137 C41.4583765,11.4964137 41.9943668,14.6393241 41.4583765,19.1020352 C40.2863572,28.8603901 36.8992895,44.949041 32.1195166,48.4268744 C25.1538481,53.4951979 25.5973323,44.6951962 25.5973323,44.6951962 C25.5973323,44.6951962 25.2224124,41.0671466 20.8482978,41.0671466 C16.4741831,41.0671466 16.1575976,45.0612213 16.1575976,45.0612213 C16.1575976,45.0612213 16.2570246,51.4985811 10.6435587,49.6043288 Z M22.1484083,18.420912 C22.924144,18.7764895 23.5614637,19.3647224 24.2760141,19.5291479 C25.2027247,19.7423936 25.917499,19.304959 26.2441395,18.7828015 C27.0424009,17.5067258 26.1089364,16.3760875 26.1089364,16.3760875 C26.1089364,16.3760875 25.8177607,15.9783386 25.0821162,15.5571917 C23.0784919,14.4101429 18.4376283,13.0005134 15.6688699,15.5571917 C14.6879202,16.4630031 14.1198258,17.5696151 13.8984425,18.420912 C13.1665173,21.2354228 15.7541515,23.2898936 15.7541515,23.2898936 C15.7541515,23.2898936 16.4781536,23.8871547 18.4281865,24.6273172 C19.3584937,24.9804283 20.7536005,25.1190579 21.7346759,25.5183379 C22.7551811,25.9336651 23.341558,26.6165877 23.2228399,27.3538838 C22.9899905,28.7999887 21.1531595,29.3302819 19.2566362,29.2420361 C16.9203978,29.1333303 14.4813998,28.1315393 14.4813998,28.1315393 C14.4813998,28.1315393 12.4005289,27.2249408 11.7851308,24.8400593 C11.1697327,22.4551777 11.4927367,12.0320154 11.4927367,12.0320154 L22.0309473,12.0320154 C22.0309473,12.0320154 26.5982615,12.306232 29.8577226,16.0229329 C33.1171837,19.7396339 32.6538749,23.6593085 32.6538749,23.6593085 C32.6538749,23.6593085 33.1034778,27.6670796 29.1942235,31.9801293 C25.2849691,36.2931789 15.9846131,35.2117005 15.7541513,35.2117005 C15.5236896,35.2117005 13.8301091,35.6749127 13.8984425,37.2636673 C13.9176564,37.7103922 14.0601203,38.7504062 15.5608973,39.0293943 C16.1246486,39.1341933 20.7726361,39.5078553 24.5257367,38.7341466 C25.7135929,38.4892678 26.8380346,37.8568383 27.8545918,37.5101171 C30.9545152,36.4528136 33.7061799,33.1515463 35.1254762,30.0972536 C36.3994541,27.3556831 36.4992395,24.7786567 36.4992395,24.7786567 C36.4992395,24.7786567 37.2338519,17.8893069 32.325094,12.9899164 C27.4163362,8.09052584 22.1179267,8.22349356 22.1179267,8.22349356 L9.0486574,8.22349356 C9.0486574,8.22349356 8.61428006,8.27011431 8.1337337,8.75214591 C7.65318733,9.23417751 7.5492194,9.68717389 7.5492194,9.68717389 L7.54921939,23.4338718 C7.54921939,23.4338718 7.92010135,29.3726946 12.6800043,31.5701766 C17.4399073,33.7676586 22.1484075,32.7785263 22.1484075,32.7785263 C22.1484075,32.7785263 24.7985874,32.3607304 26.2441395,30.2744581 C26.9569063,29.2457678 27.4072116,27.2173139 27.0429512,25.7972857 C26.2173238,22.5786704 21.9049294,21.3648413 19.7698105,20.8416011 C19.577703,20.7945226 18.8889462,20.6216859 18.4281861,20.3252549 C17.925586,20.0019061 17.6600118,19.5398069 17.7427203,19.1429056 C17.8016222,18.8602475 18.2674303,18.4414248 18.7831504,18.2302514 C19.3583161,17.9947366 19.9929668,17.9827716 20.1410409,17.9912516 C20.6451974,18.0201239 21.4715378,18.1106518 22.1484083,18.420912 Z" id="Path-9" fill="#7AD748"></path>
                <path d="M54.4501151,37.1740705 C55.4440167,37.1740705 56.1036859,36.848141 56.6841948,36.3230324 C56.7809462,36.2324964 56.8601065,36.0966924 56.8601065,35.9246741 C56.8601065,35.6440126 56.6226256,35.408619 56.3499624,35.408619 C56.2180285,35.408619 56.1036859,35.4629406 56.0245256,35.5353694 C55.5759505,35.9246741 55.1361711,36.1419604 54.4852975,36.1419604 C53.3066886,36.1419604 52.4535164,35.1370111 52.4535164,33.8966683 L52.4535164,33.8785611 C52.4535164,32.6382183 53.3154842,31.6423225 54.4852975,31.6423225 C55.074602,31.6423225 55.5319726,31.8596089 55.9541609,32.2126992 C56.0245256,32.2670208 56.1300726,32.3213423 56.2795977,32.3213423 C56.5786477,32.3213423 56.8161286,32.0859488 56.8161286,31.7781265 C56.8161286,31.5789474 56.7193771,31.4250362 56.6050345,31.3345002 C56.0685035,30.9089812 55.4440167,30.6192661 54.4940931,30.6192661 C52.6294282,30.6192661 51.3188854,32.0950024 51.3188854,33.8966683 L51.3188854,33.9147755 C51.3188854,35.7345485 52.655815,37.1740705 54.4501151,37.1740705 L54.4501151,37.1740705 Z M58.0211243,36.5674795 C58.0211243,36.8753018 58.2586052,37.1106953 58.5488596,37.1106953 C58.8479097,37.1106953 59.0853906,36.8753018 59.0853906,36.5674795 L59.0853906,30.9542492 C59.0853906,30.6554804 58.8479097,30.4110333 58.5488596,30.4110333 C58.2498096,30.4110333 58.0211243,30.6554804 58.0211243,30.9542492 L58.0211243,36.5674795 Z M61.0380113,31.7238049 C61.2842878,31.7238049 61.451404,31.6785369 61.6624981,31.4793578 L62.2518026,30.8999276 C62.3397585,30.8184452 62.4013276,30.7279092 62.4013276,30.6283197 C62.4013276,30.4563013 62.0495041,30.2752294 61.7680452,30.2752294 C61.5833378,30.2752294 61.4426084,30.3748189 61.3458569,30.5377837 L60.8445084,31.3345002 C60.809326,31.3888218 60.7741436,31.4703042 60.7741436,31.5336794 C60.7741436,31.6513761 60.8884863,31.7238049 61.0380113,31.7238049 L61.0380113,31.7238049 Z M60.5366627,36.5674795 C60.5366627,36.8753018 60.7741436,37.1106953 61.0643981,37.1106953 C61.3634481,37.1106953 61.600929,36.8753018 61.600929,36.5674795 L61.600929,32.7830758 C61.600929,32.4752535 61.3634481,32.2308064 61.0643981,32.2308064 C60.7653481,32.2308064 60.5366627,32.4752535 60.5366627,32.7830758 L60.5366627,36.5674795 Z M62.9906321,36.5674795 C62.9906321,36.8753018 63.228113,37.1106953 63.5183674,37.1106953 C63.8174175,37.1106953 64.0548984,36.8753018 64.0548984,36.5674795 L64.0548984,34.3674553 C64.0548984,33.6250604 64.4858822,33.1814341 65.1015734,33.1814341 C65.7348559,33.1814341 66.095475,33.6069532 66.095475,34.3493481 L66.095475,36.5674795 C66.095475,36.8753018 66.3329559,37.1106953 66.6320059,37.1106953 C66.931056,37.1106953 67.1597413,36.8753018 67.1597413,36.5674795 L67.1597413,34.014365 C67.1597413,32.9098262 66.5528456,32.1855384 65.5061705,32.1855384 C64.7849322,32.1855384 64.3539484,32.5748431 64.0548984,33.0184693 L64.0548984,32.7830758 C64.0548984,32.4752535 63.8174175,32.2308064 63.5183674,32.2308064 C63.2193174,32.2308064 62.9906321,32.4752535 62.9906321,32.7830758 L62.9906321,36.5674795 Z M68.4263061,31.0538387 C68.4263061,31.3797682 68.6901738,31.5970546 69.0332017,31.5970546 C69.3762297,31.5970546 69.6400974,31.3797682 69.6400974,31.0538387 L69.6400974,30.9995171 C69.6400974,30.6735876 69.3762297,30.4653549 69.0332017,30.4653549 C68.6901738,30.4653549 68.4263061,30.6735876 68.4263061,30.9995171 L68.4263061,31.0538387 Z M68.5054664,36.5674795 C68.5054664,36.8753018 68.7429473,37.1106953 69.0332017,37.1106953 C69.3322518,37.1106953 69.5697327,36.8753018 69.5697327,36.5674795 L69.5697327,32.7830758 C69.5697327,32.4752535 69.3322518,32.2308064 69.0332017,32.2308064 C68.7341517,32.2308064 68.5054664,32.4752535 68.5054664,32.7830758 L68.5054664,36.5674795 Z M73.1055595,37.1740705 C73.8795713,37.1740705 74.3809199,36.9024626 74.7943126,36.4950507 C74.891064,36.4135683 74.9438376,36.2958716 74.9438376,36.151014 C74.9438376,35.8884597 74.741539,35.6711733 74.4864669,35.6711733 C74.3633287,35.6711733 74.2577816,35.7345485 74.1962125,35.7888701 C73.9059581,36.0423708 73.5805213,36.2143892 73.158333,36.2143892 C72.3403432,36.2143892 71.7686299,35.5353694 71.7686299,34.6843312 L71.7686299,34.666224 C71.7686299,33.8332931 72.3403432,33.1452197 73.1143551,33.1452197 C73.5365433,33.1452197 73.8355934,33.317238 74.1082566,33.5526316 C74.1786213,33.6069532 74.292964,33.6612747 74.4248978,33.6612747 C74.6975611,33.6612747 74.9174508,33.4439884 74.9174508,33.1633269 C74.9174508,32.9822549 74.8206993,32.846451 74.7503346,32.7830758 C74.3545331,32.4299855 73.8531845,32.1855384 73.1231506,32.1855384 C71.724652,32.1855384 70.7043637,33.3262916 70.7043637,34.6843312 L70.7043637,34.7024384 C70.7043637,36.060478 71.724652,37.1740705 73.1055595,37.1740705 L73.1055595,37.1740705 Z M77.3186466,37.1650169 C78.0310893,37.1650169 78.5148467,36.8571946 78.8314879,36.4678899 L78.8314879,36.6489619 C78.8314879,36.893409 79.0425821,37.1106953 79.3504277,37.1106953 C79.6406821,37.1106953 79.8693674,36.8843554 79.8693674,36.5855867 L79.8693674,34.2316514 C79.8693674,33.6069532 79.7110468,33.0999517 79.3680188,32.755915 C79.0425821,32.4118783 78.5236423,32.2217528 77.8287908,32.2217528 C77.2218951,32.2217528 76.7733201,32.3303959 76.3335406,32.5024143 C76.17522,32.5657895 76.0432862,32.7378078 76.0432862,32.936987 C76.0432862,33.1904877 76.2455847,33.3896668 76.4918612,33.3896668 C76.5446348,33.3896668 76.5974083,33.3806132 76.6589774,33.362506 C76.9492319,33.2448093 77.2834642,33.1723805 77.6880613,33.1723805 C78.4356864,33.1723805 78.8402835,33.5345244 78.8402835,34.2135442 L78.8402835,34.3312409 C78.4796644,34.2135442 78.1102496,34.1320618 77.5913099,34.1320618 C76.4566789,34.1320618 75.6738715,34.6390633 75.6738715,35.6711733 L75.6738715,35.6892805 C75.6738715,36.6489619 76.4478833,37.1650169 77.3186466,37.1650169 L77.3186466,37.1650169 Z M77.6176966,36.3683003 C77.1075525,36.3683003 76.711751,36.105746 76.711751,35.6440126 L76.711751,35.6259054 C76.711751,35.1279575 77.1163481,34.8291888 77.802404,34.8291888 C78.2245923,34.8291888 78.5852114,34.9106712 78.8578747,35.0193143 L78.8578747,35.3452438 C78.8578747,35.9518349 78.3213438,36.3683003 77.6176966,36.3683003 L77.6176966,36.3683003 Z M83.9065428,36.5041043 C83.9065428,36.8209802 84.1440237,37.0654273 84.4518693,37.0654273 L86.2021915,37.0654273 C88.1372211,37.0654273 89.4741506,35.6802269 89.4741506,33.8966683 L89.4741506,33.8785611 C89.4741506,32.0950024 88.1372211,30.7279092 86.2021915,30.7279092 L84.4518693,30.7279092 C84.1440237,30.7279092 83.9065428,30.9723563 83.9065428,31.2892323 L83.9065428,36.5041043 Z M84.9884002,36.0514244 L84.9884002,31.7419121 L86.2021915,31.7419121 C87.4951431,31.7419121 88.3395197,32.6563254 88.3395197,33.8966683 L88.3395197,33.9147755 C88.3395197,35.1551183 87.4951431,36.0514244 86.2021915,36.0514244 L84.9884002,36.0514244 Z M91.4619538,34.3402945 C91.5587052,33.5978996 92.0160759,33.0818445 92.6669495,33.0818445 C93.3705966,33.0818445 93.7751937,33.634114 93.8455584,34.3402945 L91.4619538,34.3402945 Z M94.4612496,36.5403187 C94.5404099,36.4588363 94.601979,36.3411395 94.601979,36.2053356 C94.601979,35.9518349 94.4172717,35.7617093 94.1797908,35.7617093 C94.0566525,35.7617093 93.9862878,35.7979237 93.9071275,35.8612989 C93.6080775,36.1147996 93.2562539,36.2777644 92.8076789,36.2777644 C92.1216229,36.2777644 91.585092,35.8431917 91.4707493,35.0645823 L94.3820893,35.0645823 C94.6547526,35.0645823 94.8834379,34.847296 94.8834379,34.5394737 C94.8834379,33.4349348 94.153404,32.1855384 92.675745,32.1855384 C91.3476111,32.1855384 90.4064831,33.3081845 90.4064831,34.6752776 L90.4064831,34.6933848 C90.4064831,36.1691212 91.4443626,37.1740705 92.7900877,37.1740705 C93.511326,37.1740705 94.0390613,36.9296234 94.4612496,36.5403187 L94.4612496,36.5403187 Z M95.9740909,36.5674795 C95.9740909,36.8753018 96.2115718,37.1106953 96.5018263,37.1106953 C96.8008763,37.1106953 97.0383572,36.8753018 97.0383572,36.5674795 L97.0383572,34.3674553 C97.0383572,33.6250604 97.4693411,33.1814341 98.0850323,33.1814341 C98.7183147,33.1814341 99.0789338,33.6069532 99.0789338,34.3493481 L99.0789338,36.5674795 C99.0789338,36.8753018 99.3164148,37.1106953 99.6154648,37.1106953 C99.9145148,37.1106953 100.1432,36.8753018 100.1432,36.5674795 L100.1432,34.014365 C100.1432,32.9098262 99.5363045,32.1855384 98.4896294,32.1855384 C97.7683911,32.1855384 97.3374072,32.5748431 97.0383572,33.0184693 L97.0383572,32.7830758 C97.0383572,32.4752535 96.8008763,32.2308064 96.5018263,32.2308064 C96.2027762,32.2308064 95.9740909,32.4752535 95.9740909,32.7830758 L95.9740909,36.5674795 Z M102.984175,37.1469097 C103.265634,37.1469097 103.485524,37.1016417 103.714209,37.0201593 C103.863734,36.9567842 103.995668,36.7938194 103.995668,36.5946403 C103.995668,36.3411395 103.784574,36.1419604 103.547093,36.1419604 C103.511911,36.1419604 103.406364,36.1691212 103.283225,36.1691212 C102.922606,36.1691212 102.711512,35.9971028 102.711512,35.5715838 L102.711512,33.2267021 L103.547093,33.2267021 C103.802165,33.2267021 104.013259,33.0184693 104.013259,32.755915 C104.013259,32.4933607 103.802165,32.285128 103.547093,32.285128 L102.711512,32.285128 L102.711512,31.4703042 C102.711512,31.1715355 102.474031,30.9270884 102.183777,30.9270884 C101.884727,30.9270884 101.647246,31.1715355 101.647246,31.4703042 L101.647246,32.285128 L101.471334,32.285128 C101.216262,32.285128 101.013963,32.4933607 101.013963,32.755915 C101.013963,33.0184693 101.216262,33.2267021 101.471334,33.2267021 L101.647246,33.2267021 L101.647246,35.7436021 C101.647246,36.7938194 102.201368,37.1469097 102.984175,37.1469097 L102.984175,37.1469097 Z M106.379273,37.1650169 C107.091715,37.1650169 107.575473,36.8571946 107.892114,36.4678899 L107.892114,36.6489619 C107.892114,36.893409 108.103208,37.1106953 108.411054,37.1106953 C108.701308,37.1106953 108.929994,36.8843554 108.929994,36.5855867 L108.929994,34.2316514 C108.929994,33.6069532 108.771673,33.0999517 108.428645,32.755915 C108.103208,32.4118783 107.584268,32.2217528 106.889417,32.2217528 C106.282521,32.2217528 105.833946,32.3303959 105.394167,32.5024143 C105.235846,32.5657895 105.103912,32.7378078 105.103912,32.936987 C105.103912,33.1904877 105.306211,33.3896668 105.552487,33.3896668 C105.605261,33.3896668 105.658034,33.3806132 105.719604,33.362506 C106.009858,33.2448093 106.34409,33.1723805 106.748687,33.1723805 C107.496313,33.1723805 107.90091,33.5345244 107.90091,34.2135442 L107.90091,34.3312409 C107.54029,34.2135442 107.170876,34.1320618 106.651936,34.1320618 C105.517305,34.1320618 104.734498,34.6390633 104.734498,35.6711733 L104.734498,35.6892805 C104.734498,36.6489619 105.508509,37.1650169 106.379273,37.1650169 L106.379273,37.1650169 Z M106.678323,36.3683003 C106.168179,36.3683003 105.772377,36.105746 105.772377,35.6440126 L105.772377,35.6259054 C105.772377,35.1279575 106.176974,34.8291888 106.86303,34.8291888 C107.285218,34.8291888 107.645838,34.9106712 107.918501,35.0193143 L107.918501,35.3452438 C107.918501,35.9518349 107.38197,36.3683003 106.678323,36.3683003 L106.678323,36.3683003 Z M110.266923,36.5674795 C110.266923,36.8753018 110.504404,37.1106953 110.794658,37.1106953 C111.093708,37.1106953 111.331189,36.8753018 111.331189,36.5674795 L111.331189,30.9542492 C111.331189,30.6554804 111.093708,30.4110333 110.794658,30.4110333 C110.495608,30.4110333 110.266923,30.6554804 110.266923,30.9542492 L110.266923,36.5674795 Z M115.544277,36.5584259 C115.544277,36.8662482 115.781757,37.1106953 116.089603,37.1106953 C116.388653,37.1106953 116.626134,36.8662482 116.626134,36.5584259 L116.626134,31.2349107 C116.626134,30.9270884 116.388653,30.6826412 116.089603,30.6826412 C115.781757,30.6826412 115.544277,30.9270884 115.544277,31.2349107 L115.544277,36.5584259 Z M118.147771,36.5674795 C118.147771,36.8753018 118.385252,37.1106953 118.675506,37.1106953 C118.974556,37.1106953 119.212037,36.8753018 119.212037,36.5674795 L119.212037,34.3674553 C119.212037,33.6250604 119.643021,33.1814341 120.258712,33.1814341 C120.891995,33.1814341 121.252614,33.6069532 121.252614,34.3493481 L121.252614,36.5674795 C121.252614,36.8753018 121.490095,37.1106953 121.789145,37.1106953 C122.088195,37.1106953 122.31688,36.8753018 122.31688,36.5674795 L122.31688,34.014365 C122.31688,32.9098262 121.709984,32.1855384 120.663309,32.1855384 C119.942071,32.1855384 119.511087,32.5748431 119.212037,33.0184693 L119.212037,32.7830758 C119.212037,32.4752535 118.974556,32.2308064 118.675506,32.2308064 C118.376456,32.2308064 118.147771,32.4752535 118.147771,32.7830758 L118.147771,36.5674795 Z M125.157855,37.1469097 C125.439314,37.1469097 125.659204,37.1016417 125.887889,37.0201593 C126.037414,36.9567842 126.169348,36.7938194 126.169348,36.5946403 C126.169348,36.3411395 125.958254,36.1419604 125.720773,36.1419604 C125.685591,36.1419604 125.580044,36.1691212 125.456905,36.1691212 C125.096286,36.1691212 124.885192,35.9971028 124.885192,35.5715838 L124.885192,33.2267021 L125.720773,33.2267021 C125.975845,33.2267021 126.186939,33.0184693 126.186939,32.755915 C126.186939,32.4933607 125.975845,32.285128 125.720773,32.285128 L124.885192,32.285128 L124.885192,31.4703042 C124.885192,31.1715355 124.647711,30.9270884 124.357457,30.9270884 C124.058407,30.9270884 123.820926,31.1715355 123.820926,31.4703042 L123.820926,32.285128 L123.645014,32.285128 C123.389942,32.285128 123.187643,32.4933607 123.187643,32.755915 C123.187643,33.0184693 123.389942,33.2267021 123.645014,33.2267021 L123.820926,33.2267021 L123.820926,35.7436021 C123.820926,36.7938194 124.375048,37.1469097 125.157855,37.1469097 L125.157855,37.1469097 Z M127.884488,34.3402945 C127.981239,33.5978996 128.43861,33.0818445 129.089484,33.0818445 C129.793131,33.0818445 130.197728,33.634114 130.268093,34.3402945 L127.884488,34.3402945 Z M130.883784,36.5403187 C130.962944,36.4588363 131.024513,36.3411395 131.024513,36.2053356 C131.024513,35.9518349 130.839806,35.7617093 130.602325,35.7617093 C130.479187,35.7617093 130.408822,35.7979237 130.329662,35.8612989 C130.030612,36.1147996 129.678788,36.2777644 129.230213,36.2777644 C128.544157,36.2777644 128.007626,35.8431917 127.893283,35.0645823 L130.804623,35.0645823 C131.077287,35.0645823 131.305972,34.847296 131.305972,34.5394737 C131.305972,33.4349348 130.575938,32.1855384 129.098279,32.1855384 C127.770145,32.1855384 126.829017,33.3081845 126.829017,34.6752776 L126.829017,34.6933848 C126.829017,36.1691212 127.866897,37.1740705 129.212622,37.1740705 C129.93386,37.1740705 130.461595,36.9296234 130.883784,36.5403187 L130.883784,36.5403187 Z M136.372231,37.8893047 C136.759237,37.4909464 136.961536,36.893409 136.961536,36.0876388 L136.961536,32.7830758 C136.961536,32.4752535 136.724055,32.2308064 136.425005,32.2308064 C136.13475,32.2308064 135.89727,32.4752535 135.89727,32.7740222 L135.89727,33.0003621 C135.53665,32.5567359 135.052893,32.1855384 134.270086,32.1855384 C133.188228,32.1855384 132.159144,33.0184693 132.159144,34.4308305 C132.159144,35.8522453 133.179432,36.6851762 134.270086,36.6851762 C135.035302,36.6851762 135.519059,36.3230324 135.906065,35.8069773 L135.906065,36.1781748 C135.906065,37.1378561 135.387125,37.6448576 134.437202,37.6448576 C133.900671,37.6448576 133.434505,37.5090536 133.012316,37.2646065 C132.959543,37.2374457 132.897974,37.2193385 132.818813,37.2193385 C132.572537,37.2193385 132.370238,37.4275712 132.370238,37.6720183 C132.370238,37.8802511 132.484581,38.0341622 132.669288,38.106591 C133.232206,38.3872525 133.812715,38.5321101 134.463588,38.5321101 C135.299169,38.5321101 135.950043,38.3238774 136.372231,37.8893047 Z M134.551544,35.7526557 C133.82151,35.7526557 133.232206,35.2184935 133.232206,34.4398841 L133.232206,34.4217769 C133.232206,33.634114 133.812715,33.1090053 134.551544,33.1090053 C135.290374,33.1090053 135.914861,33.6431676 135.914861,34.4217769 L135.914861,34.4398841 C135.914861,35.2184935 135.290374,35.7526557 134.551544,35.7526557 L134.551544,35.7526557 Z M138.298465,36.5674795 C138.298465,36.8753018 138.535946,37.1106953 138.826201,37.1106953 C139.125251,37.1106953 139.362732,36.8662482 139.362732,36.5674795 L139.362732,35.1551183 C139.362732,34.0234186 139.881671,33.4258812 140.638092,33.2900773 C140.875573,33.2448093 141.06028,33.0546837 141.06028,32.7649686 C141.06028,32.4480927 140.866777,32.2217528 140.532545,32.2217528 C140.066379,32.2217528 139.609008,32.6744326 139.362732,33.2719701 L139.362732,32.7830758 C139.362732,32.4752535 139.125251,32.2308064 138.826201,32.2308064 C138.527151,32.2308064 138.298465,32.4752535 138.298465,32.7830758 L138.298465,36.5674795 Z M143.048083,37.1650169 C143.760526,37.1650169 144.244283,36.8571946 144.560925,36.4678899 L144.560925,36.6489619 C144.560925,36.893409 144.772019,37.1106953 145.079864,37.1106953 C145.370119,37.1106953 145.598804,36.8843554 145.598804,36.5855867 L145.598804,34.2316514 C145.598804,33.6069532 145.440484,33.0999517 145.097456,32.755915 C144.772019,32.4118783 144.253079,32.2217528 143.558228,32.2217528 C142.951332,32.2217528 142.502757,32.3303959 142.062977,32.5024143 C141.904657,32.5657895 141.772723,32.7378078 141.772723,32.936987 C141.772723,33.1904877 141.975022,33.3896668 142.221298,33.3896668 C142.274072,33.3896668 142.326845,33.3806132 142.388414,33.362506 C142.678669,33.2448093 143.012901,33.1723805 143.417498,33.1723805 C144.165123,33.1723805 144.56972,33.5345244 144.56972,34.2135442 L144.56972,34.3312409 C144.209101,34.2135442 143.839686,34.1320618 143.320747,34.1320618 C142.186116,34.1320618 141.403308,34.6390633 141.403308,35.6711733 L141.403308,35.6892805 C141.403308,36.6489619 142.17732,37.1650169 143.048083,37.1650169 L143.048083,37.1650169 Z M143.347133,36.3683003 C142.836989,36.3683003 142.441188,36.105746 142.441188,35.6440126 L142.441188,35.6259054 C142.441188,35.1279575 142.845785,34.8291888 143.531841,34.8291888 C143.954029,34.8291888 144.314648,34.9106712 144.587311,35.0193143 L144.587311,35.3452438 C144.587311,35.9518349 144.050781,36.3683003 143.347133,36.3683003 L143.347133,36.3683003 Z M146.935734,36.5674795 C146.935734,36.8753018 147.173215,37.1106953 147.463469,37.1106953 C147.762519,37.1106953 148,36.8753018 148,36.5674795 L148,30.9542492 C148,30.6554804 147.762519,30.4110333 147.463469,30.4110333 C147.164419,30.4110333 146.935734,30.6554804 146.935734,30.9542492 L146.935734,36.5674795 Z" id="Clínica-Dental-Integ" fill="#FFFFFF"></path>
                <path d="M54.7892199,25.6880734 C57.0577069,25.6880734 58.6501548,24.4954128 58.6501548,22.3700306 L58.6501548,22.3394495 C58.6501548,20.4740061 57.4483074,19.6941896 55.3150282,19.1284404 C53.4972339,18.6544343 53.0465411,18.4250765 53.0465411,17.7217125 L53.0465411,17.6911315 C53.0465411,17.1712538 53.512257,16.7584098 54.3986195,16.7584098 C55.119728,16.7584098 55.8408364,17.0183486 56.6070142,17.4770642 C56.7872913,17.5840979 56.9675684,17.6452599 57.1929148,17.6452599 C57.7938385,17.6452599 58.2745775,17.1712538 58.2745775,16.559633 C58.2745775,16.1009174 58.0191849,15.7798165 57.7637923,15.6269113 C56.8173375,15.0152905 55.7056286,14.6788991 54.4286657,14.6788991 C52.2803634,14.6788991 50.7480079,15.9633028 50.7480079,17.9051988 L50.7480079,17.9357798 C50.7480079,20.0611621 52.1151094,20.6574924 54.2333655,21.2079511 C55.9910674,21.6666667 56.3516216,21.9724771 56.3516216,22.5688073 L56.3516216,22.5993884 C56.3516216,23.2262997 55.780744,23.6085627 54.8342892,23.6085627 C53.8127189,23.6085627 52.9413795,23.2415902 52.1451556,22.6452599 C51.9949246,22.5382263 51.7846013,22.4311927 51.4841395,22.4311927 C50.8832158,22.4311927 50.4024768,22.9051988 50.4024768,23.5168196 C50.4024768,23.883792 50.5827539,24.2201835 50.8381465,24.4036697 C52.0099477,25.2599388 53.4070954,25.6880734 54.7892199,25.6880734 L54.7892199,25.6880734 Z M64.3626988,25.6880734 C66.8693925,25.6880734 68.7306502,23.7356549 68.7306502,21.3302752 L68.7306502,21.2990365 C68.7306502,18.8936569 66.8844027,16.9724771 64.3927191,16.9724771 C61.8860254,16.9724771 60.0247678,18.9248956 60.0247678,21.3302752 L60.0247678,21.3615139 C60.0247678,23.7668936 61.8710153,25.6880734 64.3626988,25.6880734 L64.3626988,25.6880734 Z M64.392437,23.853211 C63.1552853,23.853211 62.3157895,22.7839078 62.3157895,21.559633 L62.3157895,21.5286387 C62.3157895,20.304364 63.0816453,19.266055 64.362981,19.266055 C65.6001327,19.266055 66.4396285,20.3353583 66.4396285,21.559633 L66.4396285,21.5906273 C66.4396285,22.8149021 65.6737727,23.853211 64.392437,23.853211 L64.392437,23.853211 Z M70.6435548,24.5150456 C70.6435548,25.1632978 71.1345818,25.6880734 71.7411445,25.6880734 C72.3477073,25.6880734 72.8387343,25.1632978 72.8387343,24.5150456 L72.8387343,19.3290281 L73.7630204,19.3290281 C74.2684894,19.3290281 74.6728645,18.9122946 74.6728645,18.3720844 C74.6728645,17.8318743 74.2684894,17.4151407 73.7630204,17.4151407 L72.8098503,17.4151407 L72.8098503,17.0910146 C72.8098503,16.4736316 73.0986898,16.1958092 73.6041587,16.1958092 L73.7919043,16.1958092 C74.2829313,16.1958092 74.6873065,15.7482065 74.6873065,15.2234309 C74.6873065,14.6986553 74.3118153,14.3436601 73.936324,14.2819218 C73.6908105,14.2356181 73.3875292,14.2201835 73.0409219,14.2201835 C72.2610555,14.2201835 71.6689347,14.4362675 71.2645595,14.8684357 C70.8601843,15.3006038 70.6435548,15.9642906 70.6435548,16.8749305 L70.6435548,17.3997061 L70.556903,17.3997061 C70.051434,17.3997061 69.6470588,17.8318743 69.6470588,18.3720844 C69.6470588,18.9122946 70.051434,19.3290281 70.556903,19.3290281 L70.6435548,19.3290281 L70.6435548,24.5150456 Z M79.1140263,25.6880734 C79.6265939,25.6880734 80.030435,25.6267335 80.4653408,25.4580489 C80.7915202,25.3353691 81.0711025,24.9979998 81.0711025,24.5839556 C81.0711025,24.0472317 80.6206643,23.6178526 80.0925644,23.6178526 C80.0459674,23.6178526 79.8906439,23.6331875 79.8129821,23.6331875 C79.2848822,23.6331875 79.0518969,23.3724931 79.0518969,22.8357691 L79.0518969,19.3240612 L80.0925644,19.3240612 C80.651729,19.3240612 81.1021672,18.8793471 81.1021672,18.3272882 C81.1021672,17.7752294 80.651729,17.3305153 80.0925644,17.3305153 L79.0518969,17.3305153 L79.0518969,16.3030723 C79.0518969,15.6590036 78.523797,15.1376147 77.8714383,15.1376147 C77.2190796,15.1376147 76.6909797,15.6590036 76.6909797,16.3030723 L76.6909797,17.3305153 L76.6133179,17.3305153 C76.0541533,17.3305153 75.6037152,17.7752294 75.6037152,18.3272882 C75.6037152,18.8793471 76.0541533,19.3240612 76.6133179,19.3240612 L76.6909797,19.3240612 L76.6909797,23.2191434 C76.6909797,25.1206795 77.6695178,25.6880734 79.1140263,25.6880734 L79.1140263,25.6880734 Z M90.2662539,14.8197112 C90.2662539,14.4815161 90.0125737,14.2201835 89.6842817,14.2201835 C89.3559897,14.2201835 89.1172319,14.4815161 89.1172319,14.8197112 L89.1172319,19.0932681 C88.5203374,18.2016627 87.5951508,17.4022923 86.1626039,17.4022923 C84.3122309,17.4022923 82.4767802,18.939543 82.4767802,21.5374966 L82.4767802,21.5682416 C82.4767802,24.1815677 84.3122309,25.6880734 86.1626039,25.6880734 C87.5802285,25.6880734 88.4904926,24.8733305 89.1172319,23.9202351 L89.1172319,24.9963106 C89.1172319,25.3345057 89.3709121,25.5958384 89.6992041,25.5958384 C90.0125737,25.5958384 90.2662539,25.3345057 90.2662539,24.9963106 L90.2662539,14.8197112 Z M86.1051625,18.3486239 C87.5356541,18.3486239 88.8916409,19.5383102 88.8916409,21.3079686 L88.8916409,21.3377108 C88.8916409,23.1073692 87.5356541,24.3119266 86.1051625,24.3119266 C84.6597699,24.3119266 83.3931889,23.1519824 83.3931889,21.3377108 L83.3931889,21.3079686 C83.3931889,19.4490837 84.6150671,18.3486239 86.1051625,18.3486239 L86.1051625,18.3486239 Z M93.4736842,21.1009174 C93.625043,19.5214762 94.6542828,18.3486239 96.0165119,18.3486239 C97.5755074,18.3486239 98.3928449,19.6309425 98.5139319,21.1009174 L93.4736842,21.1009174 Z M98.9045323,24.4954128 C99.024717,24.3883792 99.0848094,24.2507645 99.0848094,24.1131498 C99.0848094,23.8379205 98.859463,23.6085627 98.5740243,23.6085627 C98.4388164,23.6085627 98.3336548,23.6697248 98.2435162,23.7461774 C97.6726387,24.2813456 96.9665533,24.6636086 96.0050754,24.6636086 C94.6229508,24.6636086 93.4361265,23.7003058 93.2708725,21.9877676 L98.8895092,21.9877676 C99.174948,21.9877676 99.4303406,21.7584098 99.4303406,21.4373089 C99.4303406,19.3425076 98.1233315,17.4311927 95.8247983,17.4311927 C93.676496,17.4311927 92.0990712,19.266055 92.0990712,21.5443425 L92.0990712,21.5749235 C92.0990712,24.0214067 93.84175,25.6880734 95.9750292,25.6880734 C97.2970614,25.6880734 98.1684008,25.2140673 98.9045323,24.4954128 L98.9045323,24.4954128 Z M101.721362,25.0839114 C101.721362,25.4247207 101.979862,25.6880734 102.314392,25.6880734 C102.648922,25.6880734 102.892216,25.4247207 102.892216,25.0839114 L102.892216,21.025182 C102.892216,19.5225227 103.895805,18.515586 105.24913,18.515586 C106.632867,18.515586 107.423573,19.445066 107.423573,20.932234 L107.423573,25.0839114 C107.423573,25.4247207 107.682073,25.6880734 108.016603,25.6880734 C108.335927,25.6880734 108.594427,25.4247207 108.594427,25.0839114 L108.594427,20.6378987 C108.594427,18.7324647 107.484397,17.4311927 105.58366,17.4311927 C104.230335,17.4311927 103.409217,18.1283027 102.892216,18.9958173 L102.892216,18.1283027 C102.892216,17.7874933 102.633716,17.5241407 102.299186,17.5241407 C101.979862,17.5241407 101.721362,17.8029847 101.721362,18.1283027 L101.721362,25.0839114 Z M113.902198,25.6880734 C114.371786,25.6880734 114.747457,25.6112869 115.091822,25.4730713 C115.29531,25.3962849 115.436186,25.2273547 115.436186,25.0123526 C115.436186,24.7359214 115.201392,24.505562 114.919639,24.505562 C114.825722,24.505562 114.60658,24.613063 114.183951,24.613063 C113.369998,24.613063 112.822145,24.2598454 112.822145,23.292336 L112.822145,18.6544343 L114.919639,18.6544343 C115.217045,18.6544343 115.467492,18.4240749 115.467492,18.1322864 C115.467492,17.8558551 115.217045,17.6101385 114.919639,17.6101385 L112.822145,17.6101385 L112.822145,15.736549 C112.822145,15.4140459 112.540392,15.1376147 112.21168,15.1376147 C111.867315,15.1376147 111.616868,15.4140459 111.616868,15.736549 L111.616868,17.6101385 L110.959445,17.6101385 C110.677692,17.6101385 110.427245,17.8404978 110.427245,18.1322864 C110.427245,18.4087176 110.677692,18.6544343 110.959445,18.6544343 L111.616868,18.6544343 L111.616868,23.445909 C111.616868,25.0584245 112.603004,25.6880734 113.902198,25.6880734 L113.902198,25.6880734 Z M119.305711,25.6880734 C120.683351,25.6880734 121.591686,25.0398697 122.136687,24.3144988 L122.136687,25.0398697 C122.136687,25.3485381 122.36377,25.5954729 122.696826,25.5954729 C123.014743,25.5954729 123.256966,25.3485381 123.256966,25.0090028 L123.256966,20.6413444 C123.256966,19.6227386 122.984466,18.8510675 122.454604,18.3108977 C121.879325,17.7244277 121.031546,17.4311927 119.926406,17.4311927 C118.927238,17.4311927 118.140014,17.6318271 117.36793,17.9713624 C117.216541,18.0330961 117.050013,18.2182972 117.050013,18.4652319 C117.050013,18.7430335 117.292236,18.9745349 117.564736,18.9745349 C117.625292,18.9745349 117.700986,18.9591014 117.776681,18.9282346 C118.351959,18.6658664 119.018071,18.4806654 119.805295,18.4806654 C121.273769,18.4806654 122.136687,19.2214696 122.136687,20.6567778 L122.136687,20.9345794 C121.440297,20.733945 120.728768,20.5950442 119.7296,20.5950442 C117.746403,20.5950442 116.383901,21.4901826 116.383901,23.1724256 L116.383901,23.2032925 C116.383901,24.8392352 117.852375,25.6880734 119.305711,25.6880734 L119.305711,25.6880734 Z M119.724407,24.7706422 C118.665849,24.7706422 117.758514,24.195084 117.758514,23.2105764 L117.758514,23.1802839 C117.758514,22.1957764 118.575116,21.559633 120.041974,21.559633 C120.994677,21.559633 121.765912,21.726242 122.340557,21.892851 L122.340557,22.6501644 C122.340557,23.8921586 121.161021,24.7706422 119.724407,24.7706422 L119.724407,24.7706422 Z M126.006192,25.0836846 C126.006192,25.4246219 126.309678,25.6880734 126.702425,25.6880734 C127.095171,25.6880734 127.380805,25.4246219 127.380805,25.0836846 L127.380805,14.8245723 C127.380805,14.4991322 127.077319,14.2201835 126.684572,14.2201835 C126.309678,14.2201835 126.006192,14.4991322 126.006192,14.8245723 L126.006192,25.0836846 Z M129.213622,24.2959249 L129.213622,24.3279283 C129.213622,25.0960102 129.798228,25.6880734 130.588235,25.6880734 C131.378243,25.6880734 131.962848,25.0960102 131.962848,24.3279283 L131.962848,24.2959249 C131.962848,23.527843 131.378243,22.9357798 130.588235,22.9357798 C129.798228,22.9357798 129.213622,23.527843 129.213622,24.2959249 L129.213622,24.2959249 Z" id="Softdental." fill="#FFFFFF"></path>
            </g>
        </g>
    </g>
</svg>