<?xml version="1.0" encoding="UTF-8"?>
<svg width="131px" height="44px" viewBox="0 0 131 44" version="1.1" xmlns="http://www.w3.org/2000/svg" xmlns:xlink="http://www.w3.org/1999/xlink">
    <!-- Generator: Sketch 53.2 (72643) - https://sketchapp.com -->
    <title>softdental-logo</title>
    <desc>Created with Sketch.</desc>
    <g id="Page-1" stroke="none" stroke-width="1" fill="none" fill-rule="evenodd">
        <g id="Soft-servicio-detalle" transform="translate(-62.000000, -893.000000)" fill="#FFFFFF">
            <g id="Footer" transform="translate(-2.000000, 839.000000)">
                <g id="softdental-logo" transform="translate(64.000000, 54.000000)">
                    <path d="M9.44469628,43.6518094 C6.71985928,42.7399481 2.55573541,32.3391723 0.779466241,23.5128508 C-0.0937937514,19.1736022 -0.41361927,12.4866731 0.779466234,7.44609987 C1.59594254,3.99663326 3.53618815,1.33715943 4.84510118,0.6535076 C8.95773662,-1.49454249 15.1674856,2.34067055 18.7692444,2.34067055 C21.7483648,2.34067055 28.6189608,-1.12812763 32.4347699,0.851694641 C36.110024,2.7585903 36.7886143,10.116844 36.7886143,10.116844 C36.7886143,10.116844 37.2642321,12.8826052 36.7886143,16.8097909 C35.7486082,25.3971433 32.7430508,39.5551561 28.501659,42.6156495 C22.320585,47.0757741 22.7141163,39.3317727 22.7141163,39.3317727 C22.7141163,39.3317727 22.3814264,36.139089 18.5000005,36.139089 C14.6185746,36.139089 14.3376484,39.6538747 14.3376484,39.6538747 C14.3376484,39.6538747 14.4258762,45.3187514 9.44469628,43.6518094 Z M19.65367,16.2104026 C20.3420289,16.5233108 20.9075626,17.0409557 21.5416279,17.1856501 C22.3639563,17.3733063 22.9982202,16.9883639 23.2880689,16.5288653 C23.9964162,15.4059187 23.1680946,14.410957 23.1680946,14.410957 C23.1680946,14.410957 22.9097162,14.060938 22.2569328,13.6903287 C20.4789914,12.6809258 16.3608625,11.4404518 13.9039697,13.6903287 C13.0335116,14.4874427 12.5294058,15.4612613 12.3329586,16.2104026 C11.6834755,18.6871721 13.9796454,20.4951064 13.9796454,20.4951064 C13.9796454,20.4951064 14.6220978,21.0206962 16.3524842,21.6720391 C17.178004,21.9827769 18.4159697,22.1047709 19.2865393,22.4561373 C20.1920975,22.8216253 20.7124265,23.4225972 20.6070804,24.0714178 C20.4004586,25.3439901 18.7705234,25.8106481 17.0876195,25.7329918 C15.0145288,25.6373306 12.8502531,24.7557546 12.8502531,24.7557546 C12.8502531,24.7557546 11.003766,23.9579479 10.4576847,21.8592522 C9.91160346,19.7605564 10.1982252,10.5881735 10.1982252,10.5881735 L19.5494395,10.5881735 C19.5494395,10.5881735 23.6023035,10.8294842 26.4946275,14.100181 C29.3869515,17.3708778 28.9758285,20.8201915 28.9758285,20.8201915 C28.9758285,20.8201915 29.3747894,24.3470301 25.9058631,28.1425138 C22.4369368,31.9379975 14.1841484,30.9862964 13.9796453,30.9862964 C13.7751421,30.9862964 12.2723221,31.3939232 12.3329586,32.7920272 C12.3500083,33.1851451 12.4764255,34.1003574 13.8081589,34.345867 C14.3084107,34.4380901 18.4328611,34.7669126 21.7632224,34.086049 C22.8172816,33.8705557 23.8150692,33.3140177 24.7171241,33.008903 C27.4678802,32.078476 29.9096046,29.1733607 31.1690352,26.4855832 C32.2995156,24.0730011 32.3880614,21.8052179 32.3880614,21.8052179 C32.3880614,21.8052179 33.039929,15.74259 28.6840807,11.4311264 C24.3282324,7.11966274 19.6266218,7.23667433 19.6266218,7.23667433 L8.0294405,7.23667433 C8.0294405,7.23667433 7.64399028,7.27770059 7.21757139,7.7018884 C6.79115249,8.12607621 6.69889523,8.52471303 6.69889523,8.52471303 L6.69889523,20.6218072 C6.69889523,20.6218072 7.02800202,25.8479713 11.2517621,27.7817554 C15.4755222,29.7155395 19.6536693,28.8451032 19.6536693,28.8451032 C19.6536693,28.8451032 22.0053399,28.4774427 23.2880689,26.6415231 C23.9205515,25.7362756 24.3201356,23.9512362 23.9969045,22.7016114 C23.2642736,19.86923 19.4376159,18.8010603 17.5429912,18.340609 C17.3725221,18.2991799 16.7613451,18.1470836 16.3524839,17.8862243 C15.9064953,17.6016774 15.6708347,17.1950301 15.7442271,16.8457569 C15.7964944,16.5970178 16.2098352,16.2284538 16.6674659,16.0426212 C17.1778464,15.8353682 17.7410118,15.824839 17.8724072,15.8323014 C18.3197768,15.857709 19.0530404,15.9373736 19.65367,16.2104026 Z" id="Path-9"></path>
                    <path d="M47.7852984,32.8486842 C48.6693959,32.8486842 49.2561863,32.5723684 49.7725619,32.127193 C49.8586245,32.0504386 49.9290393,31.935307 49.9290393,31.7894737 C49.9290393,31.5515351 49.7177948,31.3519737 49.4752547,31.3519737 C49.3578967,31.3519737 49.2561863,31.3980263 49.1857715,31.4594298 C48.786754,31.7894737 48.3955604,31.9736842 47.8165939,31.9736842 C46.7681951,31.9736842 46.0092795,31.1217105 46.0092795,30.0701754 L46.0092795,30.0548246 C46.0092795,29.0032895 46.7760189,28.1589912 47.8165939,28.1589912 C48.3407933,28.1589912 48.7476346,28.3432018 49.1231805,28.6425439 C49.1857715,28.6885965 49.2796579,28.7346491 49.4126638,28.7346491 C49.6786754,28.7346491 49.8899199,28.5350877 49.8899199,28.2741228 C49.8899199,28.1052632 49.8038574,27.9747807 49.702147,27.8980263 C49.2248908,27.5372807 48.6693959,27.2916667 47.8244178,27.2916667 C46.1657569,27.2916667 45,28.5427632 45,30.0701754 L45,30.0855263 C45,31.6282895 46.1892285,32.8486842 47.7852984,32.8486842 L47.7852984,32.8486842 Z M50.9617904,32.3344298 C50.9617904,32.5953947 51.1730349,32.7949561 51.4312227,32.7949561 C51.6972344,32.7949561 51.9084789,32.5953947 51.9084789,32.3344298 L51.9084789,27.5756579 C51.9084789,27.3223684 51.6972344,27.1151316 51.4312227,27.1151316 C51.1652111,27.1151316 50.9617904,27.3223684 50.9617904,27.5756579 L50.9617904,32.3344298 Z M53.6453785,28.2280702 C53.8644469,28.2280702 54.0131004,28.189693 54.2008734,28.0208333 L54.7250728,27.5296053 C54.8033115,27.4605263 54.8580786,27.3837719 54.8580786,27.2993421 C54.8580786,27.1535088 54.5451237,27 54.2947598,27 C54.1304585,27 54.0052766,27.0844298 53.919214,27.2225877 L53.4732533,27.8980263 C53.4419578,27.9440789 53.4106623,28.0131579 53.4106623,28.066886 C53.4106623,28.1666667 53.5123726,28.2280702 53.6453785,28.2280702 L53.6453785,28.2280702 Z M53.1994178,32.3344298 C53.1994178,32.5953947 53.4106623,32.7949561 53.6688501,32.7949561 C53.9348617,32.7949561 54.1461063,32.5953947 54.1461063,32.3344298 L54.1461063,29.1260965 C54.1461063,28.8651316 53.9348617,28.6578947 53.6688501,28.6578947 C53.4028384,28.6578947 53.1994178,28.8651316 53.1994178,29.1260965 L53.1994178,32.3344298 Z M55.382278,32.3344298 C55.382278,32.5953947 55.5935226,32.7949561 55.8517103,32.7949561 C56.117722,32.7949561 56.3289665,32.5953947 56.3289665,32.3344298 L56.3289665,30.4692982 C56.3289665,29.8399123 56.7123362,29.4638158 57.2600073,29.4638158 C57.8233261,29.4638158 58.1441048,29.8245614 58.1441048,30.4539474 L58.1441048,32.3344298 C58.1441048,32.5953947 58.3553493,32.7949561 58.621361,32.7949561 C58.8873726,32.7949561 59.0907933,32.5953947 59.0907933,32.3344298 L59.0907933,30.1699561 C59.0907933,29.2335526 58.5509461,28.6195175 57.6199054,28.6195175 C56.9783479,28.6195175 56.5949782,28.9495614 56.3289665,29.3256579 L56.3289665,29.1260965 C56.3289665,28.8651316 56.117722,28.6578947 55.8517103,28.6578947 C55.5856987,28.6578947 55.382278,28.8651316 55.382278,29.1260965 L55.382278,32.3344298 Z M60.2174309,27.6600877 C60.2174309,27.9364035 60.452147,28.120614 60.757278,28.120614 C61.062409,28.120614 61.2971252,27.9364035 61.2971252,27.6600877 L61.2971252,27.6140351 C61.2971252,27.3377193 61.062409,27.1611842 60.757278,27.1611842 C60.452147,27.1611842 60.2174309,27.3377193 60.2174309,27.6140351 L60.2174309,27.6600877 Z M60.2878457,32.3344298 C60.2878457,32.5953947 60.4990902,32.7949561 60.757278,32.7949561 C61.0232897,32.7949561 61.2345342,32.5953947 61.2345342,32.3344298 L61.2345342,29.1260965 C61.2345342,28.8651316 61.0232897,28.6578947 60.757278,28.6578947 C60.4912664,28.6578947 60.2878457,28.8651316 60.2878457,29.1260965 L60.2878457,32.3344298 Z M64.3797307,32.8486842 C65.0682314,32.8486842 65.5141921,32.6184211 65.8819141,32.2730263 C65.9679767,32.2039474 66.0149199,32.1041667 66.0149199,31.9813596 C66.0149199,31.7587719 65.8349709,31.5745614 65.6080786,31.5745614 C65.4985444,31.5745614 65.4046579,31.6282895 65.3498908,31.6743421 C65.0917031,31.8892544 64.8022198,32.0350877 64.4266739,32.0350877 C63.6990539,32.0350877 63.1905022,31.4594298 63.1905022,30.7379386 L63.1905022,30.7225877 C63.1905022,30.0164474 63.6990539,29.433114 64.3875546,29.433114 C64.7631004,29.433114 65.0291121,29.5789474 65.2716521,29.7785088 C65.3342431,29.8245614 65.4359534,29.870614 65.5533115,29.870614 C65.7958515,29.870614 65.9914483,29.6864035 65.9914483,29.4484649 C65.9914483,29.2949561 65.9053857,29.1798246 65.8427948,29.1260965 C65.4907205,28.8267544 65.0447598,28.6195175 64.3953785,28.6195175 C63.1513828,28.6195175 62.2438137,29.5866228 62.2438137,30.7379386 L62.2438137,30.7532895 C62.2438137,31.9046053 63.1513828,32.8486842 64.3797307,32.8486842 L64.3797307,32.8486842 Z M68.1273654,32.8410088 C68.761099,32.8410088 69.1914119,32.5800439 69.4730713,32.25 L69.4730713,32.4035088 C69.4730713,32.6107456 69.6608443,32.7949561 69.9346798,32.7949561 C70.1928675,32.7949561 70.3962882,32.6030702 70.3962882,32.3497807 L70.3962882,30.3541667 C70.3962882,29.8245614 70.2554585,29.3947368 69.9503275,29.1030702 C69.6608443,28.8114035 69.1992358,28.6502193 68.5811499,28.6502193 C68.0413028,28.6502193 67.6422853,28.7423246 67.2510917,28.8881579 C67.110262,28.941886 66.9929039,29.0877193 66.9929039,29.2565789 C66.9929039,29.4714912 67.172853,29.6403509 67.3919214,29.6403509 C67.4388646,29.6403509 67.4858079,29.6326754 67.540575,29.6173246 C67.7987627,29.5175439 68.0960699,29.4561404 68.455968,29.4561404 C69.1209971,29.4561404 69.4808952,29.7631579 69.4808952,30.3388158 L69.4808952,30.4385965 C69.1601164,30.3388158 68.8315138,30.2697368 68.3699054,30.2697368 C67.3606259,30.2697368 66.6643013,30.6995614 66.6643013,31.5745614 L66.6643013,31.5899123 C66.6643013,32.4035088 67.352802,32.8410088 68.1273654,32.8410088 L68.1273654,32.8410088 Z M68.393377,32.1655702 C67.9395924,32.1655702 67.5875182,31.9429825 67.5875182,31.5515351 L67.5875182,31.5361842 C67.5875182,31.1140351 67.9474163,30.8607456 68.5576783,30.8607456 C68.9332242,30.8607456 69.2540029,30.9298246 69.4965429,31.0219298 L69.4965429,31.2982456 C69.4965429,31.8125 69.0192868,32.1655702 68.393377,32.1655702 L68.393377,32.1655702 Z M73.9874454,32.2807018 C73.9874454,32.5493421 74.19869,32.7565789 74.4725255,32.7565789 L76.029476,32.7565789 C77.7507278,32.7565789 78.9399563,31.5822368 78.9399563,30.0701754 L78.9399563,30.0548246 C78.9399563,28.5427632 77.7507278,27.3837719 76.029476,27.3837719 L74.4725255,27.3837719 C74.19869,27.3837719 73.9874454,27.5910088 73.9874454,27.8596491 L73.9874454,32.2807018 Z M74.9497817,31.8969298 L74.9497817,28.2434211 L76.029476,28.2434211 C77.1795852,28.2434211 77.9306769,29.0186404 77.9306769,30.0701754 L77.9306769,30.0855263 C77.9306769,31.1370614 77.1795852,31.8969298 76.029476,31.8969298 L74.9497817,31.8969298 Z M80.7081514,30.4462719 C80.794214,29.816886 81.2010553,29.379386 81.7800218,29.379386 C82.4059316,29.379386 82.7658297,29.8475877 82.8284207,30.4462719 L80.7081514,30.4462719 Z M83.3760917,32.3114035 C83.4465066,32.2423246 83.5012737,32.1425439 83.5012737,32.0274123 C83.5012737,31.8125 83.3369723,31.6513158 83.1257278,31.6513158 C83.0161936,31.6513158 82.9536026,31.6820175 82.8831878,31.7357456 C82.6171761,31.9506579 82.3042213,32.0888158 81.9052038,32.0888158 C81.2949418,32.0888158 80.8176856,31.7203947 80.7159753,31.060307 L83.3056769,31.060307 C83.5482169,31.060307 83.7516376,30.8760965 83.7516376,30.6151316 C83.7516376,29.6787281 83.1022562,28.6195175 81.7878457,28.6195175 C80.606441,28.6195175 79.7692868,29.5712719 79.7692868,30.7302632 L79.7692868,30.745614 C79.7692868,31.9967105 80.6925036,32.8486842 81.889556,32.8486842 C82.5311135,32.8486842 83.0005459,32.6414474 83.3760917,32.3114035 L83.3760917,32.3114035 Z M84.7217977,32.3344298 C84.7217977,32.5953947 84.9330422,32.7949561 85.19123,32.7949561 C85.4572416,32.7949561 85.6684862,32.5953947 85.6684862,32.3344298 L85.6684862,30.4692982 C85.6684862,29.8399123 86.0518559,29.4638158 86.5995269,29.4638158 C87.1628457,29.4638158 87.4836245,29.8245614 87.4836245,30.4539474 L87.4836245,32.3344298 C87.4836245,32.5953947 87.694869,32.7949561 87.9608806,32.7949561 C88.2268923,32.7949561 88.430313,32.5953947 88.430313,32.3344298 L88.430313,30.1699561 C88.430313,29.2335526 87.8904658,28.6195175 86.959425,28.6195175 C86.3178675,28.6195175 85.9344978,28.9495614 85.6684862,29.3256579 L85.6684862,29.1260965 C85.6684862,28.8651316 85.4572416,28.6578947 85.19123,28.6578947 C84.9252183,28.6578947 84.7217977,28.8651316 84.7217977,29.1260965 L84.7217977,32.3344298 Z M90.9574236,32.8256579 C91.2077875,32.8256579 91.4033843,32.7872807 91.6068049,32.7182018 C91.7398108,32.6644737 91.8571689,32.5263158 91.8571689,32.3574561 C91.8571689,32.1425439 91.6693959,31.9736842 91.4581514,31.9736842 C91.4268559,31.9736842 91.3329694,31.9967105 91.2234352,31.9967105 C90.9026565,31.9967105 90.7148836,31.8508772 90.7148836,31.4901316 L90.7148836,29.502193 L91.4581514,29.502193 C91.6850437,29.502193 91.8728166,29.3256579 91.8728166,29.1030702 C91.8728166,28.8804825 91.6850437,28.7039474 91.4581514,28.7039474 L90.7148836,28.7039474 L90.7148836,28.0131579 C90.7148836,27.7598684 90.503639,27.5526316 90.2454512,27.5526316 C89.9794396,27.5526316 89.7681951,27.7598684 89.7681951,28.0131579 L89.7681951,28.7039474 L89.6117176,28.7039474 C89.3848253,28.7039474 89.2048763,28.8804825 89.2048763,29.1030702 C89.2048763,29.3256579 89.3848253,29.502193 89.6117176,29.502193 L89.7681951,29.502193 L89.7681951,31.6359649 C89.7681951,32.5263158 90.261099,32.8256579 90.9574236,32.8256579 L90.9574236,32.8256579 Z M93.9774381,32.8410088 C94.6111718,32.8410088 95.0414847,32.5800439 95.3231441,32.25 L95.3231441,32.4035088 C95.3231441,32.6107456 95.510917,32.7949561 95.7847525,32.7949561 C96.0429403,32.7949561 96.246361,32.6030702 96.246361,32.3497807 L96.246361,30.3541667 C96.246361,29.8245614 96.1055313,29.3947368 95.8004003,29.1030702 C95.510917,28.8114035 95.0493086,28.6502193 94.4312227,28.6502193 C93.8913755,28.6502193 93.4923581,28.7423246 93.1011645,28.8881579 C92.9603348,28.941886 92.8429767,29.0877193 92.8429767,29.2565789 C92.8429767,29.4714912 93.0229258,29.6403509 93.2419942,29.6403509 C93.2889374,29.6403509 93.3358806,29.6326754 93.3906477,29.6173246 C93.6488355,29.5175439 93.9461426,29.4561404 94.3060408,29.4561404 C94.9710699,29.4561404 95.330968,29.7631579 95.330968,30.3388158 L95.330968,30.4385965 C95.0101892,30.3388158 94.6815866,30.2697368 94.2199782,30.2697368 C93.2106987,30.2697368 92.5143741,30.6995614 92.5143741,31.5745614 L92.5143741,31.5899123 C92.5143741,32.4035088 93.2028748,32.8410088 93.9774381,32.8410088 L93.9774381,32.8410088 Z M94.2434498,32.1655702 C93.7896652,32.1655702 93.437591,31.9429825 93.437591,31.5515351 L93.437591,31.5361842 C93.437591,31.1140351 93.7974891,30.8607456 94.4077511,30.8607456 C94.7832969,30.8607456 95.1040757,30.9298246 95.3466157,31.0219298 L95.3466157,31.2982456 C95.3466157,31.8125 94.8693595,32.1655702 94.2434498,32.1655702 L94.2434498,32.1655702 Z M97.4355895,32.3344298 C97.4355895,32.5953947 97.6468341,32.7949561 97.9050218,32.7949561 C98.1710335,32.7949561 98.382278,32.5953947 98.382278,32.3344298 L98.382278,27.5756579 C98.382278,27.3223684 98.1710335,27.1151316 97.9050218,27.1151316 C97.6390102,27.1151316 97.4355895,27.3223684 97.4355895,27.5756579 L97.4355895,32.3344298 Z M102.129913,32.3267544 C102.129913,32.5877193 102.341157,32.7949561 102.614993,32.7949561 C102.881004,32.7949561 103.092249,32.5877193 103.092249,32.3267544 L103.092249,27.8135965 C103.092249,27.5526316 102.881004,27.3453947 102.614993,27.3453947 C102.341157,27.3453947 102.129913,27.5526316 102.129913,27.8135965 L102.129913,32.3267544 Z M104.445779,32.3344298 C104.445779,32.5953947 104.657023,32.7949561 104.915211,32.7949561 C105.181223,32.7949561 105.392467,32.5953947 105.392467,32.3344298 L105.392467,30.4692982 C105.392467,29.8399123 105.775837,29.4638158 106.323508,29.4638158 C106.886827,29.4638158 107.207606,29.8245614 107.207606,30.4539474 L107.207606,32.3344298 C107.207606,32.5953947 107.41885,32.7949561 107.684862,32.7949561 C107.950873,32.7949561 108.154294,32.5953947 108.154294,32.3344298 L108.154294,30.1699561 C108.154294,29.2335526 107.614447,28.6195175 106.683406,28.6195175 C106.041849,28.6195175 105.658479,28.9495614 105.392467,29.3256579 L105.392467,29.1260965 C105.392467,28.8651316 105.181223,28.6578947 104.915211,28.6578947 C104.649199,28.6578947 104.445779,28.8651316 104.445779,29.1260965 L104.445779,32.3344298 Z M110.681405,32.8256579 C110.931769,32.8256579 111.127365,32.7872807 111.330786,32.7182018 C111.463792,32.6644737 111.58115,32.5263158 111.58115,32.3574561 C111.58115,32.1425439 111.393377,31.9736842 111.182132,31.9736842 C111.150837,31.9736842 111.056951,31.9967105 110.947416,31.9967105 C110.626638,31.9967105 110.438865,31.8508772 110.438865,31.4901316 L110.438865,29.502193 L111.182132,29.502193 C111.409025,29.502193 111.596798,29.3256579 111.596798,29.1030702 C111.596798,28.8804825 111.409025,28.7039474 111.182132,28.7039474 L110.438865,28.7039474 L110.438865,28.0131579 C110.438865,27.7598684 110.22762,27.5526316 109.969432,27.5526316 C109.703421,27.5526316 109.492176,27.7598684 109.492176,28.0131579 L109.492176,28.7039474 L109.335699,28.7039474 C109.108806,28.7039474 108.928857,28.8804825 108.928857,29.1030702 C108.928857,29.3256579 109.108806,29.502193 109.335699,29.502193 L109.492176,29.502193 L109.492176,31.6359649 C109.492176,32.5263158 109.98508,32.8256579 110.681405,32.8256579 L110.681405,32.8256579 Z M113.106805,30.4462719 C113.192868,29.816886 113.599709,29.379386 114.178675,29.379386 C114.804585,29.379386 115.164483,29.8475877 115.227074,30.4462719 L113.106805,30.4462719 Z M115.774745,32.3114035 C115.84516,32.2423246 115.899927,32.1425439 115.899927,32.0274123 C115.899927,31.8125 115.735626,31.6513158 115.524381,31.6513158 C115.414847,31.6513158 115.352256,31.6820175 115.281841,31.7357456 C115.01583,31.9506579 114.702875,32.0888158 114.303857,32.0888158 C113.693595,32.0888158 113.216339,31.7203947 113.114629,31.060307 L115.70433,31.060307 C115.94687,31.060307 116.150291,30.8760965 116.150291,30.6151316 C116.150291,29.6787281 115.50091,28.6195175 114.186499,28.6195175 C113.005095,28.6195175 112.16794,29.5712719 112.16794,30.7302632 L112.16794,30.745614 C112.16794,31.9967105 113.091157,32.8486842 114.28821,32.8486842 C114.929767,32.8486842 115.399199,32.6414474 115.774745,32.3114035 L115.774745,32.3114035 Z M120.656841,33.4550439 C121.001092,33.1173246 121.181041,32.6107456 121.181041,31.9276316 L121.181041,29.1260965 C121.181041,28.8651316 120.969796,28.6578947 120.703785,28.6578947 C120.445597,28.6578947 120.234352,28.8651316 120.234352,29.1184211 L120.234352,29.310307 C119.913574,28.9342105 119.483261,28.6195175 118.786936,28.6195175 C117.8246,28.6195175 116.909207,29.3256579 116.909207,30.5230263 C116.909207,31.7280702 117.816776,32.4342105 118.786936,32.4342105 C119.467613,32.4342105 119.897926,32.127193 120.242176,31.689693 L120.242176,32.004386 C120.242176,32.8179825 119.780568,33.247807 118.93559,33.247807 C118.458333,33.247807 118.043668,33.1326754 117.668122,32.9254386 C117.621179,32.9024123 117.566412,32.8870614 117.495997,32.8870614 C117.276929,32.8870614 117.09698,33.0635965 117.09698,33.2708333 C117.09698,33.4473684 117.19869,33.5778509 117.362991,33.6392544 C117.863719,33.877193 118.380095,34 118.959061,34 C119.702329,34 120.281295,33.8234649 120.656841,33.4550439 Z M119.0373,31.6436404 C118.387918,31.6436404 117.863719,31.1907895 117.863719,30.5307018 L117.863719,30.5153509 C117.863719,29.8475877 118.380095,29.4024123 119.0373,29.4024123 C119.694505,29.4024123 120.25,29.8552632 120.25,30.5153509 L120.25,30.5307018 C120.25,31.1907895 119.694505,31.6436404 119.0373,31.6436404 L119.0373,31.6436404 Z M122.370269,32.3344298 C122.370269,32.5953947 122.581514,32.7949561 122.839702,32.7949561 C123.105713,32.7949561 123.316958,32.5877193 123.316958,32.3344298 L123.316958,31.1370614 C123.316958,30.1776316 123.778566,29.6710526 124.451419,29.5559211 C124.662664,29.5175439 124.826965,29.3563596 124.826965,29.1107456 C124.826965,28.8421053 124.65484,28.6502193 124.357533,28.6502193 C123.942868,28.6502193 123.536026,29.0339912 123.316958,29.5405702 L123.316958,29.1260965 C123.316958,28.8651316 123.105713,28.6578947 122.839702,28.6578947 C122.57369,28.6578947 122.370269,28.8651316 122.370269,29.1260965 L122.370269,32.3344298 Z M126.59516,32.8410088 C127.228894,32.8410088 127.659207,32.5800439 127.940866,32.25 L127.940866,32.4035088 C127.940866,32.6107456 128.128639,32.7949561 128.402475,32.7949561 C128.660662,32.7949561 128.864083,32.6030702 128.864083,32.3497807 L128.864083,30.3541667 C128.864083,29.8245614 128.723253,29.3947368 128.418122,29.1030702 C128.128639,28.8114035 127.667031,28.6502193 127.048945,28.6502193 C126.509098,28.6502193 126.11008,28.7423246 125.718886,28.8881579 C125.578057,28.941886 125.460699,29.0877193 125.460699,29.2565789 C125.460699,29.4714912 125.640648,29.6403509 125.859716,29.6403509 C125.906659,29.6403509 125.953603,29.6326754 126.00837,29.6173246 C126.266557,29.5175439 126.563865,29.4561404 126.923763,29.4561404 C127.588792,29.4561404 127.94869,29.7631579 127.94869,30.3388158 L127.94869,30.4385965 C127.627911,30.3388158 127.299309,30.2697368 126.8377,30.2697368 C125.828421,30.2697368 125.132096,30.6995614 125.132096,31.5745614 L125.132096,31.5899123 C125.132096,32.4035088 125.820597,32.8410088 126.59516,32.8410088 L126.59516,32.8410088 Z M126.861172,32.1655702 C126.407387,32.1655702 126.055313,31.9429825 126.055313,31.5515351 L126.055313,31.5361842 C126.055313,31.1140351 126.415211,30.8607456 127.025473,30.8607456 C127.401019,30.8607456 127.721798,30.9298246 127.964338,31.0219298 L127.964338,31.2982456 C127.964338,31.8125 127.487082,32.1655702 126.861172,32.1655702 L126.861172,32.1655702 Z M130.053311,32.3344298 C130.053311,32.5953947 130.264556,32.7949561 130.522744,32.7949561 C130.788755,32.7949561 131,32.5953947 131,32.3344298 L131,27.5756579 C131,27.3223684 130.788755,27.1151316 130.522744,27.1151316 C130.256732,27.1151316 130.053311,27.3223684 130.053311,27.5756579 L130.053311,32.3344298 Z" id="Clínica-Dental-Integ"></path>
                    <path d="M48.8725364,23 C50.8751151,23 52.2808989,21.96 52.2808989,20.1066667 L52.2808989,20.08 C52.2808989,18.4533333 51.21993,17.7733333 49.3367103,17.28 C47.7319948,16.8666667 47.3341315,16.6666667 47.3341315,16.0533333 L47.3341315,16.0266667 C47.3341315,15.5733333 47.745257,15.2133333 48.5277215,15.2133333 C49.1643028,15.2133333 49.8008841,15.44 50.4772518,15.84 C50.6363971,15.9333333 50.7955425,15.9866667 50.9944741,15.9866667 C51.5249586,15.9866667 51.9493461,15.5733333 51.9493461,15.04 C51.9493461,14.64 51.7238902,14.36 51.4984343,14.2266667 C50.6629213,13.6933333 49.6815251,13.4 48.5542457,13.4 C46.6577639,13.4 45.3050286,14.52 45.3050286,16.2133333 L45.3050286,16.24 C45.3050286,18.0933333 46.5118806,18.6133333 48.3818383,19.0933333 C49.9335052,19.4933333 50.2517959,19.76 50.2517959,20.28 L50.2517959,20.3066667 C50.2517959,20.8533333 49.7478357,21.1866667 48.9123227,21.1866667 C48.0104992,21.1866667 47.2412967,20.8666667 46.5384049,20.3466667 C46.4057838,20.2533333 46.2201142,20.16 45.954872,20.16 C45.4243875,20.16 45,20.5733333 45,21.1066667 C45,21.4266667 45.1591453,21.72 45.3846012,21.88 C46.4190459,22.6266667 47.6524222,23 48.8725364,23 L48.8725364,23 Z M57.323828,23 C59.5366912,23 61.1797753,21.297491 61.1797753,19.2 L61.1797753,19.1727599 C61.1797753,17.0752688 59.5499419,15.4 57.3503293,15.4 C55.1374661,15.4 53.494382,17.102509 53.494382,19.2 L53.494382,19.2272401 C53.494382,21.3247312 55.1242154,23 57.323828,23 L57.323828,23 Z M57.3500803,21.4 C56.2579454,21.4 55.5168539,20.4675676 55.5168539,19.4 L55.5168539,19.372973 C55.5168539,18.3054054 56.1929374,17.4 57.324077,17.4 C58.4162119,17.4 59.1573034,18.3324324 59.1573034,19.4 L59.1573034,19.427027 C59.1573034,20.4945946 58.4812199,21.4 57.3500803,21.4 L57.3500803,21.4 Z M62.8684524,21.9771198 C62.8684524,22.5423957 63.301922,23 63.8373845,23 C64.372847,23 64.8063166,22.5423957 64.8063166,21.9771198 L64.8063166,17.4549125 L65.6222594,17.4549125 C66.0684782,17.4549125 66.4254531,17.0915209 66.4254531,16.6204576 C66.4254531,16.1493943 66.0684782,15.7860027 65.6222594,15.7860027 L64.7808184,15.7860027 L64.7808184,15.5033647 C64.7808184,14.9650067 65.0358005,14.7227456 65.4820193,14.7227456 L65.6477576,14.7227456 C66.0812273,14.7227456 66.4382022,14.3324361 66.4382022,13.8748318 C66.4382022,13.4172275 66.1067255,13.1076716 65.7752487,13.0538358 C65.5585139,13.013459 65.2907827,13 64.9848041,13 C64.2963523,13 63.773639,13.1884253 63.416664,13.5652759 C63.059689,13.9421265 62.8684524,14.5208614 62.8684524,15.3149394 L62.8684524,15.7725437 L62.7919578,15.7725437 C62.345739,15.7725437 61.988764,16.1493943 61.988764,16.6204576 C61.988764,17.0915209 62.345739,17.4549125 62.7919578,17.4549125 L62.8684524,17.4549125 L62.8684524,21.9771198 Z M70.3460293,23 C70.7985146,23 71.1550181,22.9465116 71.538945,22.7994186 C71.8268901,22.6924419 72.0737002,22.3982558 72.0737002,22.0372093 C72.0737002,21.569186 71.6760617,21.1947674 71.2098648,21.1947674 C71.1687298,21.1947674 71.031613,21.2081395 70.9630547,21.2081395 C70.4968577,21.2081395 70.2911826,20.980814 70.2911826,20.5127907 L70.2911826,17.4505814 L71.2098648,17.4505814 C71.7034851,17.4505814 72.1011236,17.0627907 72.1011236,16.5813953 C72.1011236,16.1 71.7034851,15.7122093 71.2098648,15.7122093 L70.2911826,15.7122093 L70.2911826,14.8162791 C70.2911826,14.2546512 69.8249857,13.8 69.2490954,13.8 C68.6732051,13.8 68.2070082,14.2546512 68.2070082,14.8162791 L68.2070082,15.7122093 L68.1384498,15.7122093 C67.6448296,15.7122093 67.247191,16.1 67.247191,16.5813953 C67.247191,17.0627907 67.6448296,17.4505814 68.1384498,17.4505814 L68.2070082,17.4505814 L68.2070082,20.847093 C68.2070082,22.5052326 69.0708436,23 70.3460293,23 L70.3460293,23 Z M80.1910112,13.5227882 C80.1910112,13.227882 79.967067,13 79.6772569,13 C79.3874467,13 79.1766757,13.227882 79.1766757,13.5227882 L79.1766757,17.2493298 C78.6497482,16.4718499 77.8330105,15.7747989 76.5683843,15.7747989 C74.934909,15.7747989 73.3146067,17.1152815 73.3146067,19.3806971 L73.3146067,19.4075067 C73.3146067,21.6863271 74.934909,23 76.5683843,23 C77.8198373,23 78.6234018,22.2895442 79.1766757,21.458445 L79.1766757,22.3967828 C79.1766757,22.691689 79.4006199,22.919571 79.6904301,22.919571 C79.967067,22.919571 80.1910112,22.691689 80.1910112,22.3967828 L80.1910112,13.5227882 Z M76.5176761,16.6 C77.7804878,16.6 78.9775281,17.6374065 78.9775281,19.1805486 L78.9775281,19.2064838 C78.9775281,20.7496259 77.7804878,21.8 76.5176761,21.8 C75.2417101,21.8 74.1235955,20.7885287 74.1235955,19.2064838 L74.1235955,19.1805486 C74.1235955,17.559601 75.2022472,16.6 76.5176761,16.6 L76.5176761,16.6 Z M83.0224719,19 C83.1560887,17.6227273 84.0646827,16.6 85.2672335,16.6 C86.6434862,16.6 87.3650167,17.7181818 87.4719101,19 L83.0224719,19 Z M87.816725,21.96 C87.9228219,21.8666667 87.9758703,21.7466667 87.9758703,21.6266667 C87.9758703,21.3866667 87.7769387,21.1866667 87.5249586,21.1866667 C87.4055996,21.1866667 87.3127648,21.24 87.2331921,21.3066667 C86.7292319,21.7733333 86.1059127,22.1066667 85.2571376,22.1066667 C84.0370234,22.1066667 82.9893166,21.2666667 82.8434334,19.7733333 L87.8034629,19.7733333 C88.055443,19.7733333 88.2808989,19.5733333 88.2808989,19.2933333 C88.2808989,17.4666667 87.1270952,15.8 85.0979923,15.8 C83.2015104,15.8 81.8089888,17.4 81.8089888,19.3866667 L81.8089888,19.4133333 C81.8089888,21.5466667 83.3473936,23 85.2306134,23 C86.3976791,23 87.1668816,22.5866667 87.816725,21.96 L87.816725,21.96 Z M90.3033708,22.4731707 C90.3033708,22.7703565 90.5315701,23 90.8268867,23 C91.1222034,23 91.3369792,22.7703565 91.3369792,22.4731707 L91.3369792,18.9339587 C91.3369792,17.6236398 92.2229293,16.745591 93.4176196,16.745591 C94.6391568,16.745591 95.3371781,17.5560976 95.3371781,18.8529081 L95.3371781,22.4731707 C95.3371781,22.7703565 95.5653773,23 95.860694,23 C96.1425873,23 96.3707865,22.7703565 96.3707865,22.4731707 L96.3707865,18.5962477 C96.3707865,16.9347092 95.390872,15.8 93.7129363,15.8 C92.518246,15.8 91.7933777,16.4078799 91.3369792,17.1643527 L91.3369792,16.4078799 C91.3369792,16.1106942 91.10878,15.8810507 90.8134633,15.8810507 C90.5315701,15.8810507 90.3033708,16.1242026 90.3033708,16.4078799 L90.3033708,22.4731707 Z M101.056389,23 C101.470933,23 101.802568,22.9330422 102.106567,22.8125182 C102.286203,22.7455604 102.410566,22.5982533 102.410566,22.4107715 C102.410566,22.1697234 102.203294,21.9688501 101.954568,21.9688501 C101.871659,21.9688501 101.678205,22.062591 101.305116,22.062591 C100.586573,22.062591 100.102938,21.7545852 100.102938,20.910917 L100.102938,16.8666667 L101.954568,16.8666667 C102.217112,16.8666667 102.438202,16.6657933 102.438202,16.4113537 C102.438202,16.1703057 102.217112,15.9560408 101.954568,15.9560408 L100.102938,15.9560408 L100.102938,14.3222707 C100.102938,14.041048 99.8542117,13.8 99.564031,13.8 C99.2600321,13.8 99.038942,14.041048 99.038942,14.3222707 L99.038942,15.9560408 L98.4585805,15.9560408 C98.2098541,15.9560408 97.988764,16.1569141 97.988764,16.4113537 C97.988764,16.6524017 98.2098541,16.8666667 98.4585805,16.8666667 L99.038942,16.8666667 L99.038942,21.0448326 C99.038942,22.4509461 99.9094843,23 101.056389,23 L101.056389,23 Z M105.826511,23 C107.042667,23 107.844528,22.4347664 108.325645,21.802243 L108.325645,22.4347664 C108.325645,22.7039252 108.52611,22.9192523 108.820126,22.9192523 C109.100777,22.9192523 109.314607,22.7039252 109.314607,22.4078505 L109.314607,18.5992523 C109.314607,17.711028 109.074048,17.0381308 108.606296,16.5671028 C108.098451,16.0557009 107.350047,15.8 106.374449,15.8 C105.492402,15.8 104.797456,15.9749533 104.115874,16.271028 C103.98223,16.3248598 103.835222,16.4863551 103.835222,16.7016822 C103.835222,16.9439252 104.049052,17.1457944 104.28961,17.1457944 C104.343068,17.1457944 104.40989,17.1323364 104.476711,17.1054206 C104.984557,16.8766355 105.572588,16.7151402 106.267535,16.7151402 C107.563877,16.7151402 108.325645,17.3611215 108.325645,18.6127103 L108.325645,18.8549533 C107.710885,18.68 107.08276,18.5588785 106.200713,18.5588785 C104.449983,18.5588785 103.247191,19.3394393 103.247191,20.8063551 L103.247191,20.833271 C103.247191,22.2598131 104.543533,23 105.826511,23 L105.826511,23 Z M106.196129,22.2 C105.261653,22.2 104.460674,21.6981132 104.460674,20.8396226 L104.460674,20.8132075 C104.460674,19.954717 105.181555,19.4 106.476471,19.4 C107.317499,19.4 107.998331,19.545283 108.505618,19.690566 L108.505618,20.3509434 C108.505618,21.4339623 107.464345,22.2 106.196129,22.2 L106.196129,22.2 Z M111.741573,22.472973 C111.741573,22.7702703 112.009485,23 112.356194,23 C112.702904,23 112.955056,22.7702703 112.955056,22.472973 L112.955056,13.527027 C112.955056,13.2432432 112.687144,13 112.340435,13 C112.009485,13 111.741573,13.2432432 111.741573,13.527027 L111.741573,22.472973 Z M114.573034,21.7860465 L114.573034,21.8139535 C114.573034,22.4837209 115.089113,23 115.786517,23 C116.483921,23 117,22.4837209 117,21.8139535 L117,21.7860465 C117,21.1162791 116.483921,20.6 115.786517,20.6 C115.089113,20.6 114.573034,21.1162791 114.573034,21.7860465 L114.573034,21.7860465 Z" id="Softdental."></path>
                </g>
            </g>
        </g>
    </g>
</svg>