<?xml version="1.0" encoding="UTF-8"?>
<svg width="50px" height="56px" viewBox="0 0 50 56" version="1.1" xmlns="http://www.w3.org/2000/svg" xmlns:xlink="http://www.w3.org/1999/xlink">
    <!-- Generator: Sketch 53.2 (72643) - https://sketchapp.com -->
    <title>tooth</title>
    <desc>Created with Sketch.</desc>
    <g id="Page-1" stroke="none" stroke-width="1" fill="none" fill-rule="evenodd">
        <g id="Soft-servicios" transform="translate(-489.000000, -746.000000)" fill-rule="nonzero">
            <g id="Group" transform="translate(381.000000, 698.000000)">
                <g id="tooth" transform="translate(108.000000, 48.000000)">
                    <path d="M19.4995633,1.91273294 C19.6805677,1.85476803 19.8603712,1.80095127 20.0396288,1.74975439 C17.3509825,0.998066277 13.9157205,0.692740741 10.1106987,1.91273294 C1.7110262,4.60695517 -2.20600437,17.0483431 4.63034934,27.0935205 C10.7800218,36.1256764 7.82805677,41.7268772 11.3913755,50.1882261 C13.7287118,55.7370292 16.0377729,56.9880234 18.6349345,49.9054971 C19.006441,48.8916023 19.3081878,47.7663626 19.5762009,46.5989864 C17.8920306,39.9940429 19.2585153,34.7887719 14.0191048,27.0935205 C7.18264192,17.0483431 11.0998908,4.60695517 19.4995633,1.91273294 Z" id="Path" fill="#FFFFFF"></path>
                    <path d="M39.8274017,1.91273294 C39.6465066,1.85476803 39.4667031,1.80095127 39.2875546,1.74975439 C35.5867904,0.691758285 32.2601528,1.0542846 29.6636463,1.81721637 C27.5520742,2.43769201 25.9232533,3.3225575 24.9689956,3.92240156 C23.9800218,3.30039766 22.2657205,2.37208577 20.0395197,1.74975439 C19.860262,1.80095127 19.6803493,1.85476803 19.4994541,1.91273294 C11.0997817,4.606846 7.18264192,17.0482339 14.0189956,27.0935205 C19.2584061,34.7887719 17.8919214,39.9940429 19.5760917,46.5989864 C20.8501092,41.0506199 21.3610262,34.5516725 24.9689956,34.5264561 C27.8613537,34.5054971 28.7643013,38.7042963 29.6650655,43.2341832 C30.1242358,45.543501 30.5828603,47.9389474 31.3042576,49.9053879 C33.9210699,57.0435867 36.2246725,55.7008967 38.5467249,50.188117 C39.0732533,48.9379961 39.454476,47.7375439 39.7454148,46.5683119 C41.3508734,40.11554 40.1885371,34.6239376 45.315393,27.0824951 C52.1507642,17.0276023 48.1954148,4.59494737 39.8274017,1.91273294 Z" id="Path" fill="#E3F2FF"></path>
                    <polygon id="Path" fill="#FEC459" points="20.6566594 15.9686238 15.7439956 17.6061598 14.1063319 22.5184405 12.4687773 17.6061598 7.55600437 15.9686238 12.4687773 14.3311969 14.1063319 9.41880702 15.7439956 14.3311969"></polygon>
                    <path d="M39.1886463,5.12984016 C38.5860262,5.12984016 38.0969432,5.61888499 38.0969432,6.22145809 C38.0969432,6.82403119 38.5860262,7.31307602 39.1886463,7.31307602 C39.7912664,7.31307602 40.2803493,6.82403119 40.2803493,6.22145809 C40.2803493,5.61888499 39.7914847,5.12984016 39.1886463,5.12984016 Z" id="Path" fill="#303C57"></path>
                    <path d="M40.1881004,0.873185185 C33.3415939,-1.32205848 27.619869,1.13451852 24.9966157,2.64826511 C22.3735808,1.13419103 16.6527293,-1.32249513 9.80458515,0.873185185 C0.73558952,3.78201949 -3.51626638,17.0235634 3.75524017,27.707883 C7.20032751,32.7677505 7.66037118,36.6706121 8.14737991,40.8027135 C8.50393013,43.8275867 8.87259825,46.9552904 10.4125546,50.6119922 C11.4481441,53.0703158 12.9120087,55.8824327 15.0778384,55.8822144 C15.0973799,55.8822144 15.1173581,55.8819961 15.1370087,55.8815595 C16.8786026,55.8404055 18.2820961,54.1132476 19.6873362,50.2811228 C20.4031659,48.3276725 20.8617904,46.0226121 21.3053493,43.7936374 C22.1037118,39.7815049 22.9293668,35.6328109 25.0043668,35.6182924 C25.0080786,35.6182924 25.0116812,35.6182924 25.015393,35.6182924 C27.0676856,35.6182924 27.8914847,39.7684055 28.6882096,43.7817388 C29.1319869,46.017809 29.5909389,48.3301832 30.3066594,50.2813411 C31.7136463,54.1193606 33.1170306,55.8492476 34.8569869,55.8902924 C34.8767467,55.890729 34.8962882,55.8909474 34.916048,55.8909474 C37.0775109,55.8909474 38.5433406,53.0743548 39.5804585,50.611883 C41.0520742,47.1175049 41.4375546,43.9974425 41.8103712,40.9801014 C42.335262,36.7318519 42.8310044,32.7192827 46.2458515,27.6963119 L46.2458515,27.6963119 C53.6025109,16.8741209 49.1049127,3.73136842 40.1881004,0.873185185 Z M44.4399563,26.4688967 C40.7286026,31.928078 40.1768559,36.3937778 39.6432314,40.7124366 C39.2723799,43.7140585 38.9220524,46.5492086 37.5680131,49.7643509 C35.9614629,53.5783548 35.0298035,53.7076023 34.9120087,53.7076023 C34.9106987,53.7076023 34.909607,53.7076023 34.9085153,53.7076023 C34.8664847,53.7066199 33.8620087,53.6361014 32.3566594,49.5295439 C31.6994541,47.7379805 31.2574236,45.5106433 30.8299127,43.3566628 C30.35,40.938729 29.8967249,38.6547368 29.1495633,36.8720156 C28.193559,34.5910799 26.8040393,33.4348382 25.0189956,33.4348382 C25.0090611,33.4348382 24.9989083,33.4348382 24.9889738,33.4349474 C23.1965066,33.447501 21.8017467,34.612694 20.8437773,36.8983236 C20.0969432,38.6800624 19.6437773,40.9570682 19.1641921,43.3675789 C18.7367904,45.5150097 18.2949782,47.7356881 17.6375546,49.5297622 C16.1349345,53.6274776 15.1280568,53.6979961 15.085917,53.6989786 C14.9881004,53.7007251 14.045524,53.6112125 12.4252183,49.7646784 C11.0052402,46.3927797 10.670524,43.5534815 10.3162664,40.5472749 C9.819869,36.335922 9.30655022,31.9812398 5.56069869,26.4795945 C-0.994432314,16.8481404 2.95687773,5.36279142 10.4717249,2.95238986 C17.0066594,0.85702924 22.4,3.57897856 24.415393,4.84667446 C24.770524,5.07012865 25.2224891,5.07023782 25.5776201,4.84678363 C27.5937773,3.5794152 32.9884279,0.857684211 39.5216157,2.95249903 C47.185262,5.40874854 50.8625546,17.0209435 44.4399563,26.4688967 Z" id="Shape" fill="#303C57"></path>
                    <path d="M41.8541485,8.19936062 C41.3560044,8.53907212 41.2277293,9.21816764 41.5675764,9.7162729 C42.030131,10.3942768 42.4123362,11.1668148 42.7036026,12.0121637 C43.7914847,15.1696686 43.5076419,18.8536608 41.9247817,22.1198908 C41.6617904,22.662425 41.8885371,23.3153216 42.4311135,23.5782924 C42.9737991,23.8412632 43.6267467,23.6145341 43.8896288,23.072 C45.7223799,19.290308 46.0424672,15.0000312 44.7679039,11.3010838 C44.4133188,10.2717973 43.9433406,9.32470955 43.371179,8.48601949 C43.0313319,7.98780507 42.3521834,7.85953996 41.8541485,8.19936062 Z" id="Path" fill="#303C57"></path>
                    <path d="M21.0293668,14.9330058 L16.6344978,13.4681637 L15.1695415,9.07363743 C15.0209607,8.62792982 14.6037118,8.32718908 14.1338428,8.32718908 C13.6639738,8.32718908 13.2468341,8.62782066 13.0981441,9.07363743 L11.6331878,13.4681637 L7.23831878,14.9330058 C6.79257642,15.081575 6.49181223,15.4987914 6.49181223,15.9686238 C6.49181223,16.4384561 6.79246725,16.8555634 7.23831878,17.0042417 L11.6331878,18.4690838 L13.0981441,22.8636101 C13.2467249,23.3093177 13.6639738,23.6100585 14.1338428,23.6100585 C14.6037118,23.6100585 15.0208515,23.3094269 15.1695415,22.8636101 L16.6344978,18.4690838 L21.0293668,17.0042417 C21.4751092,16.8556725 21.7758734,16.4384561 21.7758734,15.9686238 C21.7758734,15.4987914 21.4751092,15.0816842 21.0293668,14.9330058 Z M15.4260917,16.5704327 C15.1001092,16.6790487 14.844214,16.9348148 14.7355895,17.2608811 L14.1337336,19.0664172 L13.5318777,17.2608811 C13.4232533,16.934924 13.1674672,16.6790487 12.8413755,16.5704327 L11.0356987,15.9686238 L12.8413755,15.3668148 C13.1673581,15.2581988 13.4232533,15.0024327 13.5318777,14.6763665 L14.1337336,12.8708304 L14.7355895,14.6763665 C14.844214,15.0023236 15.1,15.2581988 15.4260917,15.3668148 L17.2317686,15.9686238 L15.4260917,16.5704327 Z" id="Shape" fill="#303C57"></path>
                </g>
            </g>
        </g>
    </g>
</svg>